<svg width="36" height="36" viewBox="0 0 36 36" fill="none" xmlns="http://www.w3.org/2000/svg">
<path d="M36 17.896C36 27.7796 27.9411 35.7919 18 35.7919C8.05888 35.7919 0 27.7796 0 17.896C0 8.01229 8.05888 0 18 0C27.9411 0 36 8.01229 36 17.896Z" fill="#E77C06"/>
<path d="M6.42727 9.52469L6.42822 9.5246C11.7929 9.01907 16.1481 6.13998 17.5751 5.0934L17.5754 5.0932C17.6807 5.01585 17.8223 5.01585 17.9276 5.0932L17.9283 5.09369C19.3576 6.13993 23.7128 9.01907 29.0775 9.5246L29.0785 9.52469C29.4334 9.5575 29.7106 9.85505 29.7153 10.2183L29.7153 10.2192C29.7451 12.2649 29.5802 16.731 27.992 21.0563C26.4074 25.3716 23.4333 29.486 17.8658 30.991C17.8229 31.0025 17.7371 31.0141 17.6297 31.0141C17.5219 31.0141 17.436 31.0025 17.3932 30.991C11.8288 29.4853 8.91565 25.3743 7.39173 21.0615C5.86401 16.7379 5.7592 12.2733 5.79039 10.2202C5.79695 9.85333 6.07445 9.5573 6.42727 9.52469Z" fill="#E77C06" stroke="#FFAB24" stroke-width="1.06842"/>
<mask id="mask0" mask-type="alpha" maskUnits="userSpaceOnUse" x="8" y="7" width="10" height="22">
<path d="M8.25195 7.50171H17.629V28.4622H8.25195V7.50171Z" fill="#C4C4C4"/>
</mask>
<g mask="url(#mask0)">
<path fill-rule="evenodd" clip-rule="evenodd" d="M17.9038 28.0294C17.7525 28.0701 17.5034 28.0701 17.3521 28.0294C8.83504 25.7253 8.20773 15.4207 8.25411 12.3709C8.26218 11.9036 8.61714 11.5176 9.079 11.4749C12.917 11.1132 16.3216 8.92789 17.3522 8.17204C17.568 8.01356 17.688 8.01365 17.9038 8.17213C18.9364 8.92798 21.9686 11.1132 25.8066 11.4749C26.2685 11.5176 26.6254 11.9036 26.6315 12.3709C26.6759 15.4207 26.4209 25.7273 17.9038 28.0294Z" fill="#E77C06"/>
<path fill-rule="evenodd" clip-rule="evenodd" d="M9.079 11.4749C8.61714 11.5176 8.26218 11.9036 8.25411 12.3709C8.20773 15.4207 8.83504 25.7253 17.3521 28.0294C17.5034 28.0701 17.7525 28.0701 17.9038 28.0294C26.4209 25.7273 26.6759 15.4207 26.6315 12.3709C26.6254 11.9036 26.2685 11.5176 25.8066 11.4749C21.9686 11.1132 18.9364 8.92798 17.9038 8.17213C17.688 8.01365 17.568 8.01356 17.3522 8.17204C16.3216 8.92789 12.917 11.1132 9.079 11.4749ZM9.03961 12.384C9.04108 12.3118 9.09422 12.2624 9.1513 12.2571L9.1527 12.257C12.9886 11.8955 16.3708 9.8264 17.6265 8.94215C18.8263 9.81089 21.8832 11.8942 25.7329 12.257L25.7343 12.2571C25.7944 12.2627 25.8451 12.3142 25.8459 12.3811L25.846 12.3824C25.8678 13.8827 25.8128 17.1104 24.7358 20.2237C23.6652 23.3182 21.6238 26.2076 17.7052 27.2693C17.7029 27.2697 17.6981 27.2704 17.6906 27.2712C17.6741 27.273 17.6523 27.2743 17.628 27.2743C17.6036 27.2743 17.5818 27.273 17.5653 27.2712C17.5578 27.2704 17.553 27.2697 17.5507 27.2693C13.6231 26.2042 11.4887 23.3042 10.3275 20.2042C9.16073 17.0894 9.01722 13.8621 9.03961 12.384ZM17.8432 8.78776C17.8431 8.78792 17.8407 8.78951 17.8361 8.79203C17.8409 8.78886 17.8432 8.7876 17.8432 8.78776ZM17.4198 8.79205C17.4152 8.78953 17.4127 8.78794 17.4127 8.78777C17.4126 8.78761 17.415 8.78887 17.4198 8.79205Z" fill="#1D1D1B"/>
</g>
<mask id="mask1" mask-type="alpha" maskUnits="userSpaceOnUse" x="17" y="7" width="11" height="22">
<path d="M27.0059 7.50171H17.6288V28.4622H27.0059V7.50171Z" fill="#C4C4C4"/>
</mask>
<g mask="url(#mask1)">
<path fill-rule="evenodd" clip-rule="evenodd" d="M17.354 28.0294C17.5053 28.0701 17.7544 28.0701 17.9057 28.0294C26.4228 25.7253 27.0501 15.4207 27.0037 12.3709C26.9956 11.9036 26.6407 11.5176 26.1788 11.4749C22.3408 11.1132 18.9362 8.92789 17.9056 8.17204C17.6898 8.01356 17.5698 8.01365 17.354 8.17213C16.3214 8.92798 13.2892 11.1132 9.45119 11.4749C8.98936 11.5176 8.63238 11.9036 8.62633 12.3709C8.58196 15.4207 8.83693 25.7273 17.354 28.0294Z" fill="#754800"/>
<path fill-rule="evenodd" clip-rule="evenodd" d="M26.1788 11.4749C26.6407 11.5176 26.9956 11.9036 27.0037 12.3709C27.0501 15.4207 26.4228 25.7253 17.9057 28.0294C17.7544 28.0701 17.5053 28.0701 17.354 28.0294C8.83693 25.7273 8.58196 15.4207 8.62633 12.3709C8.63238 11.9036 8.98936 11.5176 9.45119 11.4749C13.2892 11.1132 16.3214 8.92798 17.354 8.17213C17.5698 8.01365 17.6898 8.01356 17.9056 8.17204C18.9362 8.92789 22.3408 11.1132 26.1788 11.4749ZM26.2182 12.384C26.2167 12.3118 26.1636 12.2624 26.1065 12.2571L26.1051 12.257C22.2693 11.8955 18.887 9.8264 17.6313 8.94215C16.4315 9.81089 13.3746 11.8942 9.5249 12.257L9.5235 12.2571C9.46342 12.2627 9.41273 12.3142 9.41186 12.3811L9.41185 12.3824C9.39002 13.8827 9.44501 17.1104 10.5221 20.2237C11.5926 23.3182 13.634 26.2076 17.5526 27.2693C17.5549 27.2697 17.5597 27.2704 17.5672 27.2712C17.5837 27.273 17.6055 27.2743 17.6299 27.2743C17.6542 27.2743 17.676 27.273 17.6925 27.2712C17.7 27.2704 17.7048 27.2697 17.7071 27.2693C21.6347 26.2042 23.7691 23.3042 24.9303 20.2042C26.0971 17.0894 26.2406 13.8621 26.2182 12.384ZM17.4146 8.78776C17.4147 8.78792 17.4171 8.78951 17.4217 8.79203C17.4169 8.78886 17.4146 8.7876 17.4146 8.78776ZM17.838 8.79205C17.8426 8.78953 17.8451 8.78794 17.8451 8.78777C17.8452 8.78761 17.8428 8.78887 17.838 8.79205Z" fill="#1D1D1B"/>
</g>
</svg>
