<svg width="20" height="21" viewBox="0 0 20 21" fill="none" xmlns="http://www.w3.org/2000/svg">
<path d="M9 0C8.46957 0 7.96086 0.210714 7.58579 0.585786C7.21071 0.960859 7 1.46957 7 2C6.99298 2.09654 6.99298 2.19346 7 2.29C4.12 3.14 2 5.82 2 9V15L0 17V18H18V17L16 15V9C16 5.82 13.88 3.14 11 2.29C11.007 2.19346 11.007 2.09654 11 2C11 1.46957 10.7893 0.960859 10.4142 0.585786C10.0391 0.210714 9.53043 0 9 0ZM9 4C10.3261 4 11.5979 4.52678 12.5355 5.46447C13.4732 6.40215 14 7.67392 14 9V16H4V9C4 7.67392 4.52678 6.40215 5.46447 5.46447C6.40215 4.52678 7.67392 4 9 4ZM18 5V11H20V5H18ZM18 13V15H20V13H18ZM7 19C7 19.5304 7.21071 20.0391 7.58579 20.4142C7.96086 20.7893 8.46957 21 9 21C9.53043 21 10.0391 20.7893 10.4142 20.4142C10.7893 20.0391 11 19.5304 11 19H7Z" fill="#424242"/>
</svg>
